<svg id="Layer_1" data-name="Layer 1" xmlns="http://www.w3.org/2000/svg" viewBox="0 0 107.86 107.01"><defs><style>.cls-1{fill:#2e7d32;}</style></defs><path class="cls-1" d="M54.08,107,.8,53.74c3.42-3.37,7-6.91,10.62-10.45L53.57,85.56C68.24,70.89,68,71.15,82.15,56.9c4.09,4.09,7.63,7.71,11,11C75.7,85.39,72,89,54,107Z"/><path class="cls-1" d="M107.86,53.32c-3.46,3.41-7,7-10.71,10.7-9.27-9.4-32.91-33.17-42.31-42.69C48.6,27.61,42.78,33.42,37,39.24,46.37,48.55,55.85,58,65.25,67.4L54.33,78.06c-12.81-12.81-26-26-38.9-39C28.2,26.3,41.43,13.11,54.58,0,67.44,12.9,94.71,40.13,107.86,53.32Z"/><path class="cls-1" d="M79.24,53.91,68.83,64.32C60.44,55.93,52.06,47.5,43.75,39.16c3.46-3.42,7-7,10.58-10.46C62.47,36.92,70.81,45.35,79.24,53.91Z"/></svg>