<?xml version="1.0" encoding="UTF-8"?>
<svg id="Layer_1" data-name="Layer 1" xmlns="http://www.w3.org/2000/svg" viewBox="0 0 681.84 111.49">
  <defs>
    <style>
      .cls-1 {
        fill: #2e7d32;
      }

      .cls-2 {
        fill: #fff;
      }

      .cls-3 {
        fill: #1e1e1e;
      }
    </style>
  </defs>
  <g>
    <path class="cls-1" d="M50.19,111.49H0V0h50.19v21.19h-29.01v23.96h29.01v21.19h-29.01v23.96h29.01v21.19Z"/>
    <path class="cls-1" d="M180.84,111.49h-70.41c-21.15,0-40.81-12.16-49.1-31.62C44,39.18,73.44,0,111.98,0v21.19s0,0,0,0c-24.41,0-42.68,24.94-30.87,50.89,5.14,11.28,16.72,18.23,29.12,18.23h70.61s0,0,0,0v21.18s0,0,0,0ZM180.84,83.99V0s0,0,0,0h-21.19s0,0,0,0v31.28s0,0,0,0h-20.18s0,0,0,0V0s0,0,0,0h-21.19s0,0,0,0v83.99s0,0,0,0h21.19s0,0,0,0v-31.53s0,0,0,0h20.18s0,0,0,0v31.53s0,0,0,0h21.19s0,0,0,0Z"/>
    <path class="cls-1" d="M242.88,111.49c-31.03,0-56-24.97-56-55.74S211.85,0,242.88,0s55.74,24.97,55.74,55.74-24.97,55.74-55.74,55.74ZM242.88,90.3c18.92,0,34.56-15.39,34.56-34.56s-15.64-34.56-34.56-34.56-34.56,15.39-34.56,34.56,15.39,34.56,34.56,34.56Z"/>
  </g>
  <g>
    <path class="cls-1" d="M438.4,84.17h-21.04V1.73h49.27v20.8h-28.22v23.52h28.22v20.8h-28.22v17.33Z"/>
    <g>
      <path class="cls-1" d="M466.63,111.16h-164.88V1.48h20.8v88.88h144.08v20.79ZM370.09,84.17c-23.03,0-41.35-18.32-41.35-41.34S347.06,1.48,370.09,1.48s41.35,18.57,41.35,41.35-18.57,41.34-41.35,41.34ZM370.09,63.37c11.14,0,20.55-9.16,20.55-20.55s-9.41-20.3-20.55-20.3-20.55,9.16-20.55,20.3,9.16,20.55,20.55,20.55Z"/>
      <path class="cls-1" d="M519.85,111.16h-20.8V22.52h-26.49V1.73h73.78v20.8h-26.49v88.63Z"/>
    </g>
  </g>
  <g>
    <rect class="cls-3" x="589.11" y="-35.16" width="29.48" height="155.98" rx="1.22" ry="1.22" transform="translate(646.67 -561.03) rotate(90)"/>
    <g>
      <path class="cls-2" d="M532.6,35.51h5.9c2,0,3.56.71,4.66,2.13.98,1.28,1.48,2.93,1.48,4.93,0,1.55-.29,2.95-.87,4.2-1.03,2.21-2.79,3.31-5.29,3.31h-5.88v-14.57ZM538.1,48.4c.67,0,1.22-.07,1.65-.21.77-.26,1.4-.75,1.89-1.49.39-.59.67-1.34.84-2.26.1-.55.15-1.06.15-1.53,0-1.81-.36-3.21-1.08-4.21-.72-1-1.87-1.5-3.47-1.5h-3.5v11.19h3.52Z"/>
      <path class="cls-2" d="M556.31,35.51h10.62v1.79h-8.7v4.42h8.04v1.69h-8.04v4.94h8.85v1.74h-10.77v-14.57Z"/>
      <path class="cls-2" d="M579.9,45.38c.05.83.24,1.5.59,2.01.65.97,1.81,1.45,3.46,1.45.74,0,1.42-.11,2.02-.32,1.18-.41,1.77-1.14,1.77-2.2,0-.79-.25-1.36-.74-1.7-.5-.33-1.29-.62-2.36-.86l-1.97-.45c-1.29-.29-2.2-.61-2.74-.96-.92-.61-1.39-1.52-1.39-2.73,0-1.31.45-2.39,1.36-3.22s2.19-1.26,3.85-1.26c1.53,0,2.83.37,3.9,1.11,1.07.74,1.6,1.91,1.6,3.54h-1.86c-.1-.78-.31-1.38-.63-1.8-.6-.76-1.62-1.14-3.07-1.14-1.16,0-2,.24-2.51.73s-.76,1.06-.76,1.71c0,.71.3,1.24.89,1.57.39.21,1.27.48,2.65.79l2.04.47c.98.22,1.75.53,2.28.92.92.68,1.39,1.67,1.39,2.97,0,1.61-.59,2.77-1.76,3.46-1.17.69-2.54,1.04-4.09,1.04-1.81,0-3.23-.46-4.26-1.39-1.03-.92-1.53-2.17-1.51-3.74h1.86Z"/>
      <path class="cls-2" d="M601.55,35.51h1.99v14.57h-1.99v-14.57Z"/>
      <path class="cls-2" d="M625.55,35.93c1.45.76,2.33,2.09,2.66,4h-1.96c-.24-1.07-.73-1.84-1.48-2.33-.75-.49-1.69-.73-2.83-.73-1.35,0-2.48.51-3.41,1.52s-1.38,2.52-1.38,4.52c0,1.73.38,3.14,1.14,4.23.76,1.09,2,1.63,3.72,1.63,1.32,0,2.4-.38,3.27-1.15.86-.76,1.3-2,1.32-3.7h-4.56v-1.64h6.4v7.8h-1.27l-.48-1.88c-.67.73-1.26,1.24-1.78,1.53-.87.49-1.97.73-3.3.73-1.73,0-3.21-.56-4.46-1.68-1.36-1.4-2.03-3.33-2.03-5.77s.66-4.38,1.98-5.82c1.26-1.38,2.88-2.06,4.88-2.06,1.37,0,2.55.26,3.55.79Z"/>
      <path class="cls-2" d="M640.44,35.51h2.33l7.36,11.81v-11.81h1.88v14.57h-2.21l-7.47-11.8v11.8h-1.89v-14.57Z"/>
      <path class="cls-2" d="M665.34,45.38c.05.83.24,1.5.58,2.01.65.97,1.81,1.45,3.46,1.45.74,0,1.42-.11,2.02-.32,1.18-.41,1.77-1.14,1.77-2.2,0-.79-.25-1.36-.74-1.7-.5-.33-1.29-.62-2.36-.86l-1.97-.45c-1.29-.29-2.2-.61-2.74-.96-.93-.61-1.39-1.52-1.39-2.73,0-1.31.45-2.39,1.36-3.22.91-.84,2.19-1.26,3.85-1.26,1.53,0,2.83.37,3.89,1.11,1.07.74,1.6,1.91,1.6,3.54h-1.86c-.1-.78-.31-1.38-.63-1.8-.6-.76-1.62-1.14-3.07-1.14-1.16,0-2,.24-2.51.73s-.76,1.06-.76,1.71c0,.71.3,1.24.89,1.57.39.21,1.27.48,2.65.79l2.04.47c.99.22,1.75.53,2.28.92.93.68,1.39,1.67,1.39,2.97,0,1.61-.59,2.77-1.76,3.46s-2.54,1.04-4.09,1.04c-1.81,0-3.23-.46-4.26-1.39-1.02-.92-1.53-2.17-1.51-3.74h1.86Z"/>
    </g>
  </g>
  <g>
    <path class="cls-3" d="M370.02,55.64c-4.18-4.18-8.43-8.43-12.64-12.64.81-.8,1.67-1.64,2.52-2.48,3.27,3.28,6.66,6.68,10,10.03,3.48-3.48,3.41-3.42,6.78-6.8.97.97,1.81,1.83,2.62,2.62-4.15,4.14-5.02,5-9.29,9.27Z"/>
    <path class="cls-3" d="M382.78,42.9c-.82.81-1.65,1.66-2.54,2.54-2.2-2.23-7.81-7.87-10.04-10.13-1.48,1.49-2.86,2.87-4.23,4.25,2.22,2.21,4.47,4.46,6.7,6.68-.92.9-1.78,1.74-2.59,2.53-3.04-3.04-6.16-6.17-9.23-9.25,3.03-3.03,6.17-6.16,9.29-9.27,3.05,3.06,9.52,9.52,12.64,12.65Z"/>
    <path class="cls-3" d="M375.99,43.04c-.8.8-1.64,1.64-2.47,2.47-1.99-1.99-3.98-3.99-5.95-5.97.82-.81,1.67-1.66,2.51-2.48,1.93,1.95,3.91,3.95,5.91,5.98Z"/>
  </g>
</svg>