<svg id="Layer_1" data-name="Layer 1" xmlns="http://www.w3.org/2000/svg" viewBox="0 0 546.34 111.49"><defs><style>.cls-1{fill:#fff;}</style></defs><path class="cls-1" d="M50.19,111.49H0V0H50.19V21.19h-29v24h29V66.34h-29v24h29Z"/><path class="cls-1" d="M180.84,111.49H110.43c-21.15,0-40.81-12.16-49.1-31.62C44,39.18,73.44,0,112,0V21.19h0c-24.41,0-42.68,24.94-30.87,50.89,5.14,11.28,16.72,18.23,29.12,18.23h70.61v21.18Zm0-27.5V0H159.65V31.28H139.47V0H118.28V84h21.19V52.46h20.18V84h21.19Z"/><path class="cls-1" d="M242.88,111.49a55.75,55.75,0,1,1,55.74-55.75,55.81,55.81,0,0,1-55.74,55.75Zm0-21.19a34.56,34.56,0,1,0-34.56-34.56A34.61,34.61,0,0,0,242.88,90.3Z"/><path class="cls-1" d="M438.4,84.17h-21V1.73h49.27v20.8H438.41V46.05h28.22v20.8H438.41V84.18Z"/><path class="cls-1" d="M466.63,111.16H301.75V1.48h20.8V90.36H466.63v20.79Zm-96.54-27a41.1,41.1,0,0,1-41.35-41.34,41.35,41.35,0,1,1,41.35,41.34Zm0-20.8a20.66,20.66,0,0,0,20.55-20.55,20.55,20.55,0,0,0-41.1,0A20.66,20.66,0,0,0,370.09,63.37Z"/><path class="cls-1" d="M519.85,111.16h-20.8V22.52H472.56V1.73h73.78v20.8H519.85Z"/><path class="cls-1" d="M370,55.64,357.38,43l2.52-2.48,10,10c3.48-3.48,3.41-3.42,6.78-6.8,1,1,1.81,1.83,2.62,2.62L370,55.64Z"/><path class="cls-1" d="M382.78,42.9c-.82.81-1.65,1.66-2.54,2.54-2.2-2.23-7.81-7.87-10-10.13L366,39.56l6.7,6.68-2.59,2.53-9.23-9.25,9.29-9.27Z"/><path class="cls-1" d="M376,43l-2.47,2.47-5.95-6,2.51-2.48Z"/></svg>